<svg width="15" height="11" viewBox="0 0 15 11" fill="none" xmlns="http://www.w3.org/2000/svg">
<path d="M14.5 5.125C14.5 4.23438 14.1953 3.4375 13.5859 2.6875C12.9766 1.9375 12.1562 1.35156 11.125 0.90625C10.0938 0.484375 8.96875 0.25 7.75 0.25C6.53125 0.25 5.40625 0.484375 4.375 0.90625C3.34375 1.35156 2.52344 1.9375 1.91406 2.6875C1.30469 3.4375 1 4.23438 1 5.125C1 5.6875 1.11719 6.20312 1.35156 6.69531C1.58594 7.21094 1.9375 7.65625 2.38281 8.07812C2.28906 8.64062 2.125 9.10938 1.9375 9.46094C1.79688 9.67188 1.60938 9.90625 1.32812 10.1406L1.14062 10.3047C1.02344 10.4219 0.976562 10.5156 1 10.5625C1 10.6328 1.04688 10.6797 1.09375 10.7031C1.14062 10.75 1.21094 10.75 1.28125 10.75C2.54688 10.6328 3.64844 10.1875 4.60938 9.4375C5.59375 9.8125 6.625 10 7.75 10C8.96875 10 10.0938 9.78906 11.125 9.34375C12.1562 8.92188 12.9766 8.33594 13.5859 7.58594C14.1953 6.83594 14.5 6.01562 14.5 5.125Z" fill="white"/>
</svg>
