<svg width="14" height="9" viewBox="0 0 14 9" fill="none" xmlns="http://www.w3.org/2000/svg">
<path d="M13.3359 3.9375C13.4297 4.125 13.5 4.3125 13.5 4.5C13.5 4.71094 13.4297 4.89844 13.3359 5.0625C12.6562 6.21094 11.7422 7.125 10.5938 7.78125C9.42188 8.48438 8.13281 8.8125 6.75 8.8125C5.34375 8.8125 4.07812 8.48438 2.90625 7.78125C1.73438 7.125 0.820312 6.21094 0.164062 5.0625C0.046875 4.89844 0 4.71094 0 4.5C0 4.3125 0.046875 4.125 0.164062 3.9375C0.820312 2.8125 1.73438 1.89844 2.90625 1.21875C4.07812 0.539062 5.34375 0.1875 6.75 0.1875C8.13281 0.1875 9.42188 0.539062 10.5938 1.21875C11.7422 1.89844 12.6562 2.8125 13.3359 3.9375ZM6.75 7.6875C7.3125 7.6875 7.85156 7.54688 8.34375 7.26562C8.8125 6.98438 9.21094 6.58594 9.49219 6.09375C9.77344 5.625 9.9375 5.08594 9.9375 4.5C9.9375 3.9375 9.77344 3.39844 9.49219 2.90625C9.21094 2.4375 8.8125 2.03906 8.34375 1.75781C7.85156 1.47656 7.3125 1.3125 6.75 1.3125C6.16406 1.3125 5.625 1.47656 5.15625 1.75781C4.66406 2.03906 4.26562 2.4375 3.98438 2.90625C3.70312 3.39844 3.5625 3.9375 3.5625 4.5C3.5625 5.08594 3.70312 5.625 3.98438 6.09375C4.26562 6.58594 4.66406 6.98438 5.15625 7.26562C5.625 7.54688 6.16406 7.6875 6.75 7.6875ZM9.1875 4.5C9.1875 3.84375 8.92969 3.25781 8.46094 2.78906C7.99219 2.32031 7.40625 2.0625 6.75 2.0625C6.32812 2.0625 5.95312 2.15625 5.60156 2.34375C5.88281 2.34375 6.11719 2.46094 6.30469 2.64844C6.49219 2.83594 6.60938 3.07031 6.60938 3.35156C6.60938 3.63281 6.49219 3.89062 6.30469 4.07812C6.11719 4.26562 5.88281 4.35938 5.60156 4.35938C5.32031 4.35938 5.0625 4.26562 4.875 4.07812C4.6875 3.89062 4.59375 3.63281 4.59375 3.35156C4.40625 3.72656 4.3125 4.10156 4.3125 4.5C4.3125 5.17969 4.54688 5.76562 5.01562 6.23438C5.48438 6.70312 6.07031 6.9375 6.75 6.9375C7.40625 6.9375 7.99219 6.70312 8.46094 6.23438C8.92969 5.76562 9.1875 5.17969 9.1875 4.5Z" fill="white"/>
</svg>
