<svg width="14" height="12" viewBox="0 0 14 12" fill="none" xmlns="http://www.w3.org/2000/svg">
<path d="M13.9815 3.21175C13.9534 3.13706 13.8952 3.07756 13.8212 3.04767L12.5772 2.54578C12.4999 2.14389 12.1946 1.82203 11.8018 1.72056L11.7347 0.947531C11.7249 0.834415 11.649 0.737862 11.5414 0.701596C11.4338 0.665361 11.3149 0.696297 11.2387 0.780412L10.9194 1.13258L10.722 0.441953C10.688 0.322904 10.5812 0.239329 10.4574 0.235045C10.3329 0.230635 10.2212 0.306691 10.179 0.423138L8.70458 4.4907C8.70458 4.4907 3.24308 4.74564 3.24079 4.74577C2.12087 4.81307 1.05987 4.21383 0.538488 3.21898C0.465225 3.07931 0.292648 3.02537 0.153006 3.0986C0.0133016 3.17183 -0.0405751 3.34441 0.0326248 3.48408C0.498731 4.37346 1.32427 4.99916 2.27085 5.22698C2.17259 5.34149 1.96146 5.62531 1.838 6.07152C1.70375 6.5567 1.65537 7.33014 2.14898 8.31223L1.34838 9.39966C1.30161 9.46315 1.28321 9.54317 1.29752 9.62075L1.64988 11.5314C1.67485 11.6669 1.79298 11.7652 1.93071 11.7652H2.28964C2.37432 11.7652 2.45463 11.7276 2.50892 11.6626C2.56318 11.5976 2.58577 11.5118 2.5706 11.4285L2.34748 10.2029L4.70819 8.43071C4.71234 8.42756 4.70419 8.4341 4.70819 8.43071C4.93391 8.24112 5.09776 8.03231 5.21497 7.81763C6.44534 8.03364 8.12913 8.32594 9.20835 8.49975L9.68384 11.524C9.70571 11.6629 9.82536 11.7652 9.96595 11.7652H10.2613C10.419 11.7652 10.5469 11.6374 10.5469 11.4797V8.4097C10.8149 8.22662 10.9108 7.92043 10.9743 7.62056C10.9763 7.61113 11.6096 4.68825 11.6096 4.68825C11.729 4.70814 11.8495 4.71858 11.9709 4.71858C12.8072 4.71858 13.573 4.22896 13.9695 3.4408C14.0053 3.36954 14.0097 3.28647 13.9815 3.21175Z" fill="white"/>
</svg>
