<?xml version="1.0" standalone="no"?>
<!DOCTYPE svg PUBLIC "-//W3C//DTD SVG 20010904//EN"
 "http://www.w3.org/TR/2001/REC-SVG-20010904/DTD/svg10.dtd">
<svg version="1.0" xmlns="http://www.w3.org/2000/svg"
 width="70.000000pt" height="70.000000pt" viewBox="0 0 70.000000 70.000000"
 preserveAspectRatio="xMidYMid meet">
<metadata>
Created by potrace 1.11, written by Peter Selinger 2001-2013
</metadata>
<g transform="translate(0.000000,70.000000) scale(0.100000,-0.100000)"
fill="#000000" stroke="none">
<path d="M0 350 l0 -350 350 0 350 0 0 350 0 350 -350 0 -350 0 0 -350z m190
276 c0 -22 -5 -25 -42 -28 l-43 -3 -3 -47 c-3 -43 -5 -48 -28 -48 -23 0 -24 2
-24 75 l0 75 70 0 c68 0 70 -1 70 -24z m470 -51 c0 -73 -1 -75 -24 -75 -23 0
-25 5 -28 48 l-3 47 -42 3 c-38 3 -43 6 -43 28 0 23 2 24 70 24 l70 0 0 -75z
m-400 -90 l0 -85 70 0 70 0 0 -50 0 -50 -70 0 -70 0 0 -85 0 -85 -55 0 -55 0
0 220 0 220 55 0 55 0 0 -85z m290 -135 l0 -220 -55 0 -55 0 0 220 0 220 55 0
55 0 0 -220z m-448 -207 l3 -48 43 -3 c37 -3 42 -6 42 -28 0 -23 -2 -24 -70
-24 l-70 0 0 75 c0 73 1 75 24 75 23 0 25 -5 28 -47z m558 -28 l0 -75 -70 0
c-68 0 -70 1 -70 24 0 22 5 25 43 28 l42 3 3 48 c3 42 5 47 28 47 23 0 24 -2
24 -75z"/>
</g>
</svg>
