<svg width="35" height="34" viewBox="0 0 35 34" fill="none" xmlns="http://www.w3.org/2000/svg">
<path d="M24.75 8H21.5278L21.25 8.30664V25.724L21.5278 26H24.75L25 25.724V8.30664L24.75 8Z" fill="white"/>
<path d="M14.4621 15.0221V8.30664L14.1316 8H10.3305L10 8.30664V25.724L10.3305 26H14.1316L14.4621 25.724V18.9779H20.3125V15.0221H14.4621Z" fill="white"/>
<path d="M3 8.48676H0V0H8V3.18254H3V8.48676Z" fill="#F7AB32"/>
<path d="M8.0498 30.8175V34H0.0498047L0.0498047 25.5132H3.0498L3.0498 30.8175H8.0498Z" fill="#F7AB32"/>
<path d="M32 25.4605H35V33.9473H27V30.7647H32V25.4605Z" fill="#F7AB32"/>
<path d="M27 3.18254V0L35 0V8.48676H32V3.18254L27 3.18254Z" fill="#F7AB32"/>
</svg>
