<svg width="378" height="89" viewBox="0 0 378 89" fill="none" xmlns="http://www.w3.org/2000/svg">
<g filter="url(#filter0_d)">
<path d="M12.2161 20.9688H4V1H25.9097V8.4883H12.2161V20.9688Z" fill="#F7AB32"/>
<path d="M26.0468 73.4556V81H4.29919L4.29919 60.8816H12.4545L12.4545 73.4556H26.0468Z" fill="#F7AB32"/>
<path d="M365.675 60.9064H373.891V80.8752H351.981V73.3869H365.675V60.9064Z" fill="#F7AB32"/>
<path d="M352.061 8.46897V0.924561L373.808 0.924561V21.043H365.653V8.46897H352.061Z" fill="#F7AB32"/>
</g>
<path d="M207.873 35.9001L208.562 35.2197H214.762L215.45 35.9001L215.864 36.9887L206.151 60.3253L205.531 60.9376H197.471L207.873 35.9001Z" fill="white"/>
<path d="M218.206 40.4585L222.89 52.7052H222.752L226.404 21.6804L227.023 21H235.014L235.634 21.6804L230.812 60.3253L230.123 60.9376H218.413L217.793 60.3253L214.073 50.4599L218.206 40.4585Z" fill="white"/>
<path d="M187.62 21H195.611L196.231 21.6804L199.262 47.5344L193.613 60.9376H192.442L191.822 60.3253L187 21.6804L187.62 21Z" fill="white"/>
<path d="M248.331 21L247.711 21.6804L236 60.3253L236.689 60.9376H244.818L245.438 60.3253L256.597 21H248.331Z" fill="white"/>
<path d="M264.106 21.6804L263.486 21H260.179L257.768 29.7767L261.902 44.8129H253.497L251.086 53.0453H264.175L266.173 60.3253L266.793 60.9376H275.197L275.817 60.3253L264.106 21.6804Z" fill="white"/>
<path d="M111 21.6804V60.3253L111.62 60.9376H119.611L120.231 60.3253V21H111.62L111 21.6804Z" fill="white"/>
<path d="M280 21.6804V60.3253L280.62 60.9376H288.611L289.231 60.3253V21H280.62L280 21.6804Z" fill="white"/>
<path d="M127.326 50.4598L133.113 60.3252L134.008 60.9375H143.377L143.859 60.3252L137.728 49.9155C135.868 50.3918 134.077 50.5279 132.493 50.5279H127.326V50.4598Z" fill="white"/>
<path d="M296.326 50.4598L302.113 60.3252L303.008 60.9375H312.377L312.859 60.3252L306.728 49.9155C304.868 50.3918 303.077 50.5279 301.493 50.5279H296.326V50.4598Z" fill="white"/>
<path d="M146.477 34.2673C146.477 27.0554 141.448 21.0681 131.322 21.0681H123.744V29.4366H131.873C135.317 29.4366 137.177 31.6819 137.177 34.2673C137.177 36.8527 135.317 39.1659 131.873 39.1659H123.744V47.4664C123.744 47.4664 129.806 47.4664 132.148 47.4664C134.835 47.4664 137.659 47.1943 140.897 45.0171C144.686 42.4317 146.477 38.6896 146.477 34.2673Z" fill="white"/>
<path d="M315.477 34.2673C315.477 27.0554 310.448 21.0681 300.322 21.0681H292.744V29.4366H300.873C304.317 29.4366 306.177 31.6819 306.177 34.2673C306.177 36.8527 304.317 39.1659 300.873 39.1659H292.744V47.4664C292.744 47.4664 298.806 47.4664 301.148 47.4664C303.835 47.4664 306.659 47.1943 309.897 45.0171C313.686 42.4317 315.477 38.6896 315.477 34.2673Z" fill="white"/>
<path d="M59.6859 21H51.695L51.0061 21.6804V60.3253L51.695 60.9376H59.6859L60.3059 60.3253V21.6804L59.6859 21Z" fill="white"/>
<path d="M35.2998 36.5804V21.6804L34.6109 21H26.6889L26 21.6804V60.3253L26.6889 60.9376H34.6109L35.2998 60.3253V45.3572H47.4928V36.5804H35.2998Z" fill="white"/>
<path d="M333.813 29.7767H351.724L352.344 29.0964V21.6804L351.724 21H333.813V29.7767Z" fill="white"/>
<path d="M333.813 45.153H346.557L347.177 44.5406V37.3968L346.557 36.7844H333.813V45.153Z" fill="white"/>
<path d="M330.3 21H321.689L321 21.6804V60.3253L321.689 60.9376H330.3V21Z" fill="white"/>
<path d="M351.793 52.1609H333.813V60.9376H351.793L352.481 60.3253V52.8413L351.793 52.1609Z" fill="white"/>
<path d="M160.231 21H151.62L151 21.6804V60.3253L151.62 60.9376H160.231V21Z" fill="white"/>
<path d="M167.74 21H163.813V29.3005H167.74C171.666 29.3005 174.353 31.4777 174.353 35.1517V46.854C174.353 50.528 171.666 52.7052 167.74 52.7052H163.813V60.9376H167.74C176.695 60.9376 183.584 56.9234 183.584 47.8065V34.1311C183.584 25.0142 176.695 21 167.74 21Z" fill="white"/>
<path d="M78.3308 21L77.7108 21.6804L66 60.3253L66.6889 60.9376H74.8176L75.4376 60.3253L86.5973 21H78.3308Z" fill="white"/>
<path d="M94.1749 21.6804L93.486 21H90.2483L87.7684 29.7767L91.9016 44.8129H83.4974L81.1552 53.0453H94.1749L96.1726 60.3253L96.7926 60.9376H105.197L105.817 60.3253L94.1749 21.6804Z" fill="white"/>
<defs>
<filter id="filter0_d" x="0" y="0.924561" width="378" height="88.0754" filterUnits="userSpaceOnUse" color-interpolation-filters="sRGB">
<feFlood flood-opacity="0" result="BackgroundImageFix"/>
<feColorMatrix in="SourceAlpha" type="matrix" values="0 0 0 0 0 0 0 0 0 0 0 0 0 0 0 0 0 0 127 0"/>
<feOffset dy="4"/>
<feGaussianBlur stdDeviation="2"/>
<feColorMatrix type="matrix" values="0 0 0 0 0 0 0 0 0 0 0 0 0 0 0 0 0 0 0.25 0"/>
<feBlend mode="normal" in2="BackgroundImageFix" result="effect1_dropShadow"/>
<feBlend mode="normal" in="SourceGraphic" in2="effect1_dropShadow" result="shape"/>
</filter>
</defs>
</svg>
